<?xml version="1.0" encoding="utf-8"?>
<!-- Generator: Adobe Illustrator 23.0.3, SVG Export Plug-In . SVG Version: 6.00 Build 0)  -->
<svg version="1.1" id="Capa_1" xmlns="http://www.w3.org/2000/svg" xmlns:xlink="http://www.w3.org/1999/xlink" x="0px" y="0px"
	 viewBox="0 0 475.1 475.1" style="enable-background:new 0 0 475.1 475.1;" xml:space="preserve">
<style type="text/css">
	.st0{fill:url(#SVGID_1_);}
</style>
<linearGradient id="SVGID_1_" gradientUnits="userSpaceOnUse" x1="40.265" y1="237.5455" x2="434.826" y2="237.5455">
	<stop  offset="0" style="stop-color:#1245C6"/>
	<stop  offset="1" style="stop-color:#9909B7"/>
</linearGradient>
<path class="st0" d="M113.9,269.8c-2.9-11.4-4.3-22.2-4.3-32.3V201c0-4.9-1.8-9.2-5.4-12.8c-3.6-3.6-7.9-5.4-12.8-5.4
	c-5,0-9.2,1.8-12.9,5.4c-3.6,3.6-5.4,7.9-5.4,12.8v36.5c0,21.1,4,41.5,12,61.1L113.9,269.8z M237.5,328.9c25.1,0,46.6-8.9,64.5-26.8
	c17.9-17.9,26.8-39.4,26.8-64.5V201L432,97.9c1.9-1.9,2.9-4.1,2.9-6.6s-1-4.7-2.9-6.6l-23.4-23.4c-1.9-1.9-4.1-2.9-6.6-2.9
	c-2.5,0-4.7,1-6.6,2.9L43.1,413.7c-1.9,1.9-2.9,4.1-2.9,6.6c0,2.5,0.9,4.7,2.9,6.6l23.4,23.4c1.9,1.9,4.1,2.9,6.6,2.9
	c2.5,0,4.7-0.9,6.6-2.9l72.5-72.5c20.9,12.9,43.3,20.7,67.1,23.1v37.7h-73.1c-4.9,0-9.2,1.8-12.8,5.4c-3.6,3.6-5.4,7.9-5.4,12.8
	c0,4.9,1.8,9.2,5.4,12.8c3.6,3.6,7.9,5.4,12.8,5.4h182.7c4.9,0,9.2-1.8,12.8-5.4c3.6-3.6,5.4-7.9,5.4-12.8c0-4.9-1.8-9.2-5.4-12.8
	c-3.6-3.6-7.9-5.4-12.8-5.4h-73.1v-37.7c41.3-4.6,76-22.4,104.1-53.5C388,316.2,402,279.6,402,237.5V201c0-4.9-1.8-9.2-5.4-12.8
	c-3.6-3.6-7.9-5.4-12.9-5.4c-4.9,0-9.2,1.8-12.8,5.4c-3.6,3.6-5.4,7.9-5.4,12.8v36.5c0,35.2-12.5,65.3-37.5,90.4
	s-55.2,37.5-90.4,37.5c-20.6,0-40.1-4.8-58.5-14.6l27.4-27.4C216.7,327.1,227.1,328.9,237.5,328.9z M290.2,16.8
	C274.5,5.6,257,0,237.5,0c-25.1,0-46.6,9-64.5,26.8c-17.9,17.9-26.8,39.4-26.8,64.5v146.2L323.5,60.2
	C317,42.5,305.9,28.1,290.2,16.8z"/>
</svg>
